<?xml version="1.0" standalone="no"?>
<!DOCTYPE svg PUBLIC "-//W3C//DTD SVG 20010904//EN"
 "http://www.w3.org/TR/2001/REC-SVG-20010904/DTD/svg10.dtd">
<svg version="1.0" xmlns="http://www.w3.org/2000/svg"
 width="260.000000pt" height="260.000000pt" viewBox="0 0 260.000000 260.000000"
 preserveAspectRatio="xMidYMid meet">
<metadata>
Created by potrace 1.14, written by Peter Selinger 2001-2017
</metadata>
<g transform="translate(0.000000,260.000000) scale(0.100000,-0.100000)"
fill="#000000" stroke="none">
<path d="M245 1864 c-55 -24 -106 -44 -112 -44 -13 0 -15 -9 -16 -92 l-1 -48
-58 0 -58 0 1 -75 1 -75 57 0 57 0 0 -277 c1 -301 5 -373 29 -430 35 -84 95
-117 204 -111 90 5 182 39 176 66 -17 85 -28 113 -44 106 -9 -3 -35 -9 -58
-11 -39 -5 -43 -3 -54 23 -11 28 -21 590 -11 622 3 8 27 12 73 12 l69 0 0 75
0 74 -72 3 -73 3 0 107 c0 59 -3 109 -5 111 -3 2 -50 -15 -105 -39z"/>
<path d="M943 1673 c-32 -13 -75 -36 -96 -50 l-39 -27 -40 42 c-37 39 -43 42
-94 42 l-54 0 0 -475 0 -475 120 0 120 0 0 384 c0 297 3 386 13 394 22 19 100
33 132 24 17 -5 40 -23 51 -40 21 -31 22 -41 22 -364 1 -183 1 -348 2 -365 l0
-33 118 0 118 0 -1 386 -1 387 40 18 c55 23 112 17 145 -16 l26 -25 3 -375 3
-375 120 0 120 0 -4 383 c-1 210 -6 393 -10 407 -13 47 -63 115 -106 144 -84
56 -222 44 -331 -29 l-52 -35 -28 30 c-67 72 -184 89 -297 43z"/>
<path d="M2132 1679 c-138 -54 -200 -203 -199 -482 0 -251 62 -402 192 -463
44 -21 62 -23 160 -21 118 3 165 18 212 69 49 52 93 178 93 263 l0 35 -52 1
c-155 5 -142 7 -145 -26 -10 -140 -34 -188 -100 -201 -40 -8 -85 30 -103 88
-21 63 -23 434 -4 508 17 64 47 99 91 104 59 8 98 -42 109 -141 4 -32 8 -65 9
-73 2 -15 6 -16 84 -6 95 11 111 17 111 40 0 38 -28 154 -45 188 -48 94 -118
131 -260 135 -83 3 -109 -1 -153 -18z"/>
</g>
</svg>
